<svg xmlns="http://www.w3.org/2000/svg"><symbol id="icon-about" viewBox="0 0 32 32"><path d="M30 16c0-7.732-6.268-14-14-14S2 8.268 2 16s6.268 14 14 14 14-6.268 14-14m2 0c0 8.837-7.163 16-16 16S0 24.837 0 16 7.163 0 16 0s16 7.163 16 16"/><path d="M18.75 11.5a2.75 2.75 0 1 0-5.5 0 2.75 2.75 0 0 0 5.5 0m2 0a4.75 4.75 0 1 1-9.499-.001 4.75 4.75 0 0 1 9.499.001M19 18.75a8.5 8.5 0 0 1 8.48 7.915 1 1 0 0 1-1.994.136A6.5 6.5 0 0 0 19 20.75h-6a6.5 6.5 0 0 0-6.485 6.064 1 1 0 0 1-1.996-.13A8.5 8.5 0 0 1 13 18.75z"/></symbol><symbol id="icon-contact" viewBox="0 0 32 32"><path d="M5.915.623c1.049-.86 2.648-.87 3.598.226l5.075 5.858c.917 1.06.743 2.61-.199 3.556v.002l-1.884 1.884a20.83 20.83 0 0 0 7.323 7.334l1.889-1.89c.941-.944 2.488-1.119 3.545-.21l5.88 5.047.108.097c1.066 1.025.952 2.707-.054 3.714l-4.212 4.22c-1.516 1.517-3.813 1.993-5.71 1.073A44.8 44.8 0 0 1 .468 10.702l-.082-.18C-.42 8.662.072 6.458 1.54 4.989L5.713.807zM8.002 2.16c-.156-.18-.55-.263-.873.061L2.956 6.4h-.001c-.908.91-1.17 2.192-.775 3.224l.088.203.001.002a42.8 42.8 0 0 0 19.877 19.906h.001c1.061.515 2.453.282 3.421-.688l4.212-4.22h.001c.326-.326.24-.724.059-.88L23.96 18.9c-.15-.13-.449-.175-.716.011l-.112.095-2.029 2.03h.001a1.69 1.69 0 0 1-2.054.311 22.84 22.84 0 0 1-8.409-8.419l-.01-.02a1.7 1.7 0 0 1-.185-1.073l.027-.137a1.7 1.7 0 0 1 .46-.805l2.04-2.042c.293-.295.253-.66.103-.834z"/></symbol><symbol id="icon-cv" viewBox="0 0 37 37"><path d="M18.007 23.727c-.707 1.111-1.386 2.199-2.907 3.256a9.33 9.33 0 0 1-5.346 1.684c-5.078 0-9.176-3.692-9.176-10.181 0-5.672 3.855-10.153 9.284-10.153 2.2 0 4.153.76 5.592 1.901 1.33 1.059 1.954 2.118 2.498 3.068l-3.8 1.899c-.272-.623-.599-1.276-1.439-1.98-.924-.734-1.845-.951-2.635-.951-3.094 0-4.723 2.878-4.723 6.08 0 4.21 2.146 6.298 4.723 6.298 2.498 0 3.504-1.737 4.154-2.849zM31.318 8.93h5.104L29.77 28.096h-4.885L18.316 8.93h5.104l3.964 13.63z"/></symbol><symbol id="icon-fleche" viewBox="0 0 14 10"><path d="M1 0a1 1 0 0 0-.8 1.6l6 8a1 1 0 0 0 1.6 0l6-8A1 1 0 0 0 13 0z"/></symbol><symbol id="icon-github" viewBox="0 0 35 35"><g clip-path="url(#clip0_12422_1761)"><mask id="mask0_12422_1761" width="35" height="35" x="0" y="0" maskUnits="userSpaceOnUse" style="mask-type:luminance"><path d="M0 0h35v35H0z"/></mask><g mask="url(#mask0_12422_1761)"><path fill-rule="evenodd" d="M17.5 0C7.831 0 0 7.831 0 17.5c0 7.744 5.01 14.284 11.966 16.603.875.153 1.203-.372 1.203-.831 0-.416-.022-1.794-.022-3.26-4.397.81-5.534-1.071-5.884-2.056-.197-.503-1.05-2.056-1.794-2.472-.613-.328-1.488-1.137-.022-1.159 1.378-.022 2.362 1.269 2.69 1.794 1.576 2.647 4.091 1.903 5.097 1.444.153-1.138.613-1.904 1.116-2.341-3.894-.438-7.962-1.947-7.962-8.64 0-1.904.678-3.479 1.793-4.704-.175-.437-.787-2.231.175-4.637 0 0 1.466-.46 4.813 1.793a16.2 16.2 0 0 1 4.375-.59c1.487 0 2.975.197 4.375.59 3.347-2.275 4.812-1.793 4.812-1.793.963 2.406.35 4.2.175 4.637 1.116 1.225 1.794 2.778 1.794 4.703 0 6.716-4.09 8.203-7.984 8.64.634.548 1.18 1.598 1.18 3.238 0 2.341-.021 4.222-.021 4.813 0 .46.328 1.006 1.203.831A17.53 17.53 0 0 0 35 17.5C35 7.831 27.169 0 17.5 0" clip-rule="evenodd"/></g></g><defs><clipPath id="clip0_12422_1761"><path d="M0 0h35v35H0z"/></clipPath></defs></symbol><symbol id="icon-linkedin" viewBox="0 0 35 35"><path fill-rule="evenodd" d="M13.751 13.08h5.416v2.698c.78-1.552 2.781-2.946 5.787-2.946 5.762 0 7.13 3.089 7.13 8.756v10.495H26.25v-9.205c0-3.227-.78-5.047-2.766-5.047-2.755 0-3.9 1.962-3.9 5.046v9.206h-5.833zM3.748 31.835h5.834V12.832H3.748zm6.67-25.2a3.7 3.7 0 0 1-1.099 2.628 3.75 3.75 0 0 1-2.654 1.091 3.8 3.8 0 0 1-2.651-1.09 3.72 3.72 0 0 1-1.097-2.629c0-.987.394-1.932 1.098-2.629a3.772 3.772 0 0 1 5.304 0 3.7 3.7 0 0 1 1.098 2.63" clip-rule="evenodd"/></symbol><symbol id="icon-prix" viewBox="0 0 73 77"><path d="M.585 5.689A3.75 3.75 0 0 1 0 3.663C0 1.638 1.568 0 3.507 0h15.584c1.597 0 3.094.879 3.907 2.308L32.764 19.3c-6.872.909-13.017 4.26-17.594 9.219zm71.816 0L57.83 28.519c-4.577-4.96-10.722-8.31-17.594-9.219l9.766-16.992C50.83.878 52.312 0 53.91 0h15.584C71.432 0 73 1.638 73 3.663c0 .715-.2 1.43-.585 2.026zM11.406 50.038c0-6.952 2.644-13.618 7.35-18.534s11.089-7.677 17.744-7.677 13.038 2.762 17.744 7.677c4.706 4.916 7.35 11.582 7.35 18.534s-2.644 13.618-7.35 18.533-11.089 7.677-17.744 7.677-13.038-2.761-17.744-7.677-7.35-11.582-7.35-18.533m26.292-14.133c-.485-1.042-1.897-1.042-2.396 0l-3.193 6.761c-.2.417-.57.7-.999.76l-7.157 1.087c-1.098.164-1.526 1.564-.741 2.383l5.175 5.271c.314.328.457.775.385 1.236l-1.226 7.432c-.185 1.131.955 2.01 1.94 1.474l6.387-3.515a1.31 1.31 0 0 1 1.24 0l6.388 3.515c.983.536 2.124-.328 1.939-1.474l-1.226-7.432a1.46 1.46 0 0 1 .384-1.236l5.176-5.272c.798-.804.356-2.204-.741-2.382l-7.144-1.087a1.33 1.33 0 0 1-.998-.76z"/></symbol><symbol id="icon-projets" viewBox="0 0 36 36"><path d="M30.5 13.8c0-.857 0-1.439-.037-1.889-.036-.438-.101-.663-.18-.82a2 2 0 0 0-.875-.873c-.156-.08-.38-.145-.82-.18C28.139 10 27.558 10 26.7 10H5.5v15.2c0 .857 0 1.439.037 1.889.036.438.101.663.18.82a2 2 0 0 0 .875.873c.156.08.38.145.817.18C7.86 29 8.441 29 9.296 29h17.408c.855 0 1.437 0 1.886-.037.437-.036.66-.101.816-.18l.139-.079c.314-.192.57-.468.737-.797.08-.156.145-.38.18-.818.038-.45.038-1.032.038-1.889zM7.5 7a2 2 0 0 0-1.73 1h9.814c-.46-.46-.615-.602-.78-.704l-.138-.077a2 2 0 0 0-.442-.165C14.02 7.006 13.79 7 13.013 7zm25 18.2c0 .824.001 1.502-.044 2.052-.046.562-.145 1.078-.392 1.563v.001a4 4 0 0 1-1.75 1.748c-.485.247-1 .346-1.561.392-.55.045-1.227.044-2.049.044H9.296c-.822 0-1.5.001-2.05-.044-.561-.046-1.078-.145-1.562-.392a4 4 0 0 1-1.748-1.748c-.247-.486-.346-1.002-.392-1.564-.045-.55-.044-1.228-.044-2.052V9a4 4 0 0 1 4-4h5.513c.6 0 1.063-.005 1.495.072l.183.038.004.001q.46.112.878.326l.274.152h.002c.426.263.779.625 1.262 1.11L18.414 8H26.7c.824 0 1.502-.001 2.052.044.562.046 1.078.145 1.563.392h.001a4 4 0 0 1 1.749 1.748c.247.486.345 1.002.391 1.564.045.55.044 1.228.044 2.052z"/></symbol><symbol id="icon-rec" viewBox="0 0 23 23"><circle cx="11.5" cy="11.5" r="11.5"/></symbol><symbol id="icon-youtube" viewBox="0 0 35 35"><g clip-path="url(#clip0_12422_1744)"><mask id="mask0_12422_1744" width="35" height="35" x="0" y="0" maskUnits="userSpaceOnUse" style="mask-type:luminance"><path d="M0 0h35v35H0z"/></mask><g mask="url(#mask0_12422_1744)"><path d="M34.27 9.49a4.1 4.1 0 0 0-1.116-1.853 4.45 4.45 0 0 0-1.952-1.082c-2.738-.722-13.71-.722-13.71-.722a112 112 0 0 0-13.695.686 4.6 4.6 0 0 0-1.95 1.108c-.54.52-.931 1.16-1.135 1.86A42.3 42.3 0 0 0 0 17.5c-.018 2.685.22 5.367.712 8.012.2.699.589 1.336 1.13 1.85a4.5 4.5 0 0 0 1.955 1.084c2.776.72 13.694.72 13.694.72 4.58.052 9.16-.177 13.712-.685a4.45 4.45 0 0 0 1.95-1.082 4.1 4.1 0 0 0 1.116-1.852c.503-2.641.748-5.325.731-8.014a38.8 38.8 0 0 0-.73-8.044M14.004 22.492v-9.985l9.129 4.994z"/></g></g><defs><clipPath id="clip0_12422_1744"><path d="M0 0h35v35H0z"/></clipPath></defs></symbol></svg>